<mxfile host="app.diagrams.net" modified="2023-07-07T05:32:30.829Z" agent="Mozilla/5.0 (Macintosh; Intel Mac OS X 10_15_7) AppleWebKit/537.36 (KHTML, like Gecko) Chrome/114.0.0.0 Safari/537.36" etag="BRzVvrOddomhNUWaJTxv" version="21.6.1" type="github">
  <diagram id="C5RBs43oDa-KdzZeNtuy" name="Page-1">
    <mxGraphModel dx="1050" dy="676" grid="1" gridSize="10" guides="1" tooltips="1" connect="1" arrows="1" fold="1" page="1" pageScale="1" pageWidth="827" pageHeight="1169" math="0" shadow="0">
      <root>
        <mxCell id="WIyWlLk6GJQsqaUBKTNV-0" />
        <mxCell id="WIyWlLk6GJQsqaUBKTNV-1" parent="WIyWlLk6GJQsqaUBKTNV-0" />
        <mxCell id="mZa8EJyU1qpHvlnu3c-i-3" style="edgeStyle=orthogonalEdgeStyle;rounded=0;orthogonalLoop=1;jettySize=auto;html=1;exitX=0.5;exitY=1;exitDx=0;exitDy=0;" edge="1" parent="WIyWlLk6GJQsqaUBKTNV-1" source="WIyWlLk6GJQsqaUBKTNV-3" target="mZa8EJyU1qpHvlnu3c-i-0">
          <mxGeometry relative="1" as="geometry" />
        </mxCell>
        <mxCell id="WIyWlLk6GJQsqaUBKTNV-3" value="页面点击创建划词评论" style="rounded=1;whiteSpace=wrap;html=1;fontSize=12;glass=0;strokeWidth=1;shadow=0;" parent="WIyWlLk6GJQsqaUBKTNV-1" vertex="1">
          <mxGeometry x="175" y="90" width="120" height="40" as="geometry" />
        </mxCell>
        <mxCell id="mZa8EJyU1qpHvlnu3c-i-2" value="" style="edgeStyle=orthogonalEdgeStyle;rounded=0;orthogonalLoop=1;jettySize=auto;html=1;" edge="1" parent="WIyWlLk6GJQsqaUBKTNV-1" source="mZa8EJyU1qpHvlnu3c-i-0" target="mZa8EJyU1qpHvlnu3c-i-1">
          <mxGeometry relative="1" as="geometry" />
        </mxCell>
        <mxCell id="mZa8EJyU1qpHvlnu3c-i-0" value="为涉及的标签创建id&lt;br&gt;（doc_tags）" style="rounded=1;whiteSpace=wrap;html=1;fontSize=12;glass=0;strokeWidth=1;shadow=0;" vertex="1" parent="WIyWlLk6GJQsqaUBKTNV-1">
          <mxGeometry x="160" y="170" width="150" height="40" as="geometry" />
        </mxCell>
        <mxCell id="mZa8EJyU1qpHvlnu3c-i-5" style="edgeStyle=orthogonalEdgeStyle;rounded=0;orthogonalLoop=1;jettySize=auto;html=1;entryX=0.5;entryY=0;entryDx=0;entryDy=0;" edge="1" parent="WIyWlLk6GJQsqaUBKTNV-1" source="mZa8EJyU1qpHvlnu3c-i-1" target="mZa8EJyU1qpHvlnu3c-i-4">
          <mxGeometry relative="1" as="geometry" />
        </mxCell>
        <mxCell id="mZa8EJyU1qpHvlnu3c-i-1" value="创建划词范围&lt;br&gt;（marks）" style="whiteSpace=wrap;html=1;rounded=1;glass=0;strokeWidth=1;shadow=0;" vertex="1" parent="WIyWlLk6GJQsqaUBKTNV-1">
          <mxGeometry x="175" y="240" width="120" height="40" as="geometry" />
        </mxCell>
        <mxCell id="mZa8EJyU1qpHvlnu3c-i-4" value="创建评论，关联marks&lt;br&gt;（comments）" style="whiteSpace=wrap;html=1;rounded=1;glass=0;strokeWidth=1;shadow=0;" vertex="1" parent="WIyWlLk6GJQsqaUBKTNV-1">
          <mxGeometry x="157.5" y="310" width="155" height="50" as="geometry" />
        </mxCell>
      </root>
    </mxGraphModel>
  </diagram>
</mxfile>
